<?xml version="1.0" standalone="no"?>
<!DOCTYPE svg PUBLIC "-//W3C//DTD SVG 20010904//EN"
 "http://www.w3.org/TR/2001/REC-SVG-20010904/DTD/svg10.dtd">
<svg version="1.0" xmlns="http://www.w3.org/2000/svg"
 width="3750.000000pt" height="3750.000000pt" viewBox="0 0 3750.000000 3750.000000"
 preserveAspectRatio="xMidYMid meet">

<g transform="translate(0.000000,3750.000000) scale(0.100000,-0.100000)"
fill="#000000" stroke="none">
<path d="M19015 28774 c-2771 -99 -5336 -1567 -6777 -3879 -650 -1044 -1032
-2187 -1145 -3435 -22 -245 -25 -922 -5 -1165 148 -1808 908 -3446 2197 -4741
889 -893 1967 -1558 3206 -1979 1457 -495 2916 -625 4299 -384 2265 394 4225
1784 5535 3924 54 88 118 188 143 222 l46 63 25 -17 c14 -9 113 -76 219 -150
107 -74 200 -137 208 -140 12 -4 12 0 3 23 -71 187 -289 764 -289 767 0 3 26
28 59 56 l59 51 293 -179 c161 -99 295 -178 297 -177 1 2 -26 45 -62 97 -81
119 -249 400 -305 510 l-42 84 53 138 53 138 30 -6 c17 -3 147 -26 290 -51
143 -24 269 -47 280 -50 27 -8 28 -10 -111 93 -116 87 -311 250 -346 289 -14
17 -20 131 -52 984 -56 1488 -99 2495 -126 2940 -17 270 -80 522 -207 820 -99
233 -208 373 -346 446 -64 34 -82 38 -159 42 -198 10 -355 -85 -586 -351 -136
-158 -226 -272 -534 -682 -327 -435 -457 -594 -586 -717 -112 -106 -195 -166
-294 -213 -288 -137 -428 14 -1063 1145 -385 685 -618 1041 -777 1185 -186
167 -363 172 -523 12 -71 -71 -132 -161 -198 -292 -84 -168 -98 -212 -139
-435 -194 -1060 -542 -1900 -1085 -2621 -124 -166 -168 -246 -223 -404 -80
-234 -124 -523 -118 -778 4 -174 14 -165 -138 -113 -193 66 -327 92 -551 105
-510 31 -1075 -89 -1383 -294 -37 -25 -106 -86 -153 -135 -180 -189 -228 -380
-140 -560 40 -83 160 -198 255 -244 108 -54 148 -55 488 -12 384 48 581 60
890 52 416 -10 693 -46 1170 -151 534 -118 738 -167 768 -182 19 -9 44 -36 58
-58 57 -97 10 -224 -98 -270 -77 -32 -181 -17 -823 114 -852 175 -1141 196
-1545 114 -257 -51 -631 -173 -755 -246 -92 -53 -190 -154 -238 -245 -21 -39
-50 -115 -64 -169 -24 -89 -26 -115 -26 -288 0 -158 3 -206 21 -285 50 -220
172 -387 344 -468 132 -63 172 -69 638 -96 419 -25 738 -36 1485 -51 749 -15
798 -19 995 -69 127 -33 240 -82 341 -148 205 -134 289 -249 260 -356 -23 -81
-111 -151 -192 -152 -44 0 -144 34 -411 139 -228 89 -354 125 -486 141 -135
16 -547 30 -872 30 -419 1 -1159 18 -1292 30 -500 47 -844 221 -1053 535 -116
175 -162 299 -181 485 -7 74 -18 164 -23 200 -32 198 8 448 104 657 43 93 132
230 190 292 l45 48 -53 42 c-30 23 -79 67 -109 99 -401 421 -365 935 102 1466
178 202 580 394 946 452 243 38 810 -4 1167 -87 48 -12 91 -19 97 -17 14 5
-107 248 -177 353 -122 184 -319 393 -462 489 -141 94 -296 157 -461 187 -113
21 -413 18 -523 -4 -397 -80 -988 -331 -1677 -711 -203 -112 -268 -143 -380
-180 -425 -139 -840 -169 -1266 -91 -738 136 -1377 581 -1667 1160 -184 370
-215 822 -81 1207 44 125 70 179 142 287 156 237 510 492 974 703 73 33 136
63 141 67 4 4 1 135 -8 292 -49 932 -68 1484 -68 2029 0 588 19 840 79 1032
65 206 158 185 430 -94 176 -181 377 -423 630 -763 90 -120 300 -412 320 -443
1 -2 39 24 85 58 225 163 605 299 947 339 184 22 458 11 594 -24 23 -6 28 -3
32 17 3 12 24 122 47 243 153 824 322 1409 447 1547 34 38 39 40 83 36 130
-13 277 -208 518 -688 65 -129 160 -328 212 -442 51 -115 96 -205 100 -200 15
14 1337 2037 1334 2040 -6 6 -254 32 -448 47 -204 15 -687 25 -872 19z m3325
-6674 c66 -13 125 -34 195 -69 253 -126 406 -333 446 -602 34 -234 -74 -507
-275 -696 -85 -80 -157 -125 -258 -160 -103 -37 -269 -39 -378 -5 -129 41
-296 136 -411 234 -170 146 -283 391 -265 577 26 278 212 545 461 662 166 78
310 95 485 59z m1957 -806 c310 -64 551 -284 635 -581 31 -109 31 -267 0 -376
-79 -278 -309 -510 -584 -587 -354 -100 -731 82 -899 433 -61 129 -74 191 -74
352 1 131 3 146 34 235 50 147 129 263 239 355 181 150 429 215 649 169z"/>
<path d="M22277 21923 c-3 -5 -19 -75 -37 -158 -37 -173 -66 -260 -105 -311
-33 -43 -28 -43 -281 17 -93 23 -179 43 -190 46 -33 7 -49 -51 -48 -167 1 -74
7 -111 27 -168 68 -196 233 -370 410 -432 77 -28 246 -38 330 -20 180 37 320
170 380 362 105 332 27 586 -224 733 -56 33 -226 105 -247 105 -6 0 -13 -3
-15 -7z"/>
<path d="M24261 21116 c-5 -12 -30 -90 -56 -172 -56 -174 -82 -238 -126 -299
-57 -79 -86 -77 -336 19 -93 35 -171 61 -176 57 -15 -15 -48 -124 -57 -194
-34 -243 94 -467 333 -581 108 -52 168 -66 281 -66 364 0 659 293 660 655 0
253 -152 447 -452 577 l-63 27 -8 -23z"/>
<path d="M16903 25279 c-88 -43 -158 -150 -184 -278 -18 -94 -7 -268 24 -363
52 -161 159 -302 269 -353 63 -29 158 -34 216 -10 56 24 111 82 147 158 107
221 50 553 -128 744 -108 115 -239 154 -344 102z"/>
<path d="M15163 24889 c-88 -43 -161 -160 -184 -292 -57 -341 164 -728 416
-727 178 1 294 169 295 427 0 264 -129 508 -315 594 -57 26 -157 25 -212 -2z"/>
<path d="M14460 23085 c-160 -27 -342 -88 -474 -158 -89 -47 -205 -162 -246
-242 -28 -56 -34 -80 -38 -151 -4 -75 -2 -89 22 -138 63 -129 223 -212 453
-237 508 -53 1083 256 1083 581 0 166 -139 292 -375 341 -106 22 -308 24 -425
4z"/>
<path d="M16275 22141 c-125 -57 -141 -222 -28 -308 31 -24 45 -28 103 -28 58
0 72 4 103 28 72 55 95 142 58 222 -22 48 -44 69 -94 90 -48 20 -93 19 -142
-4z"/>
<path d="M15665 22006 c-66 -29 -112 -116 -101 -189 28 -174 257 -212 336 -56
46 88 9 197 -82 245 -34 17 -113 18 -153 0z"/>
<path d="M16085 21563 c-44 -23 -65 -44 -86 -85 -65 -127 53 -281 195 -254 79
15 146 97 146 179 0 41 -27 102 -56 128 -56 49 -141 63 -199 32z"/>
<path d="M24803 12189 c-217 -36 -390 -207 -438 -434 -17 -79 -19 -267 -5
-365 5 -35 8 -65 7 -66 -1 -2 -29 4 -62 12 -147 34 -298 6 -417 -78 l-28 -19
0 30 c0 17 9 96 20 174 22 156 18 212 -19 284 -26 52 -87 108 -142 132 -70 31
-322 54 -599 55 -271 0 -335 -10 -464 -73 l-78 -38 -32 27 c-83 73 -248 95
-721 95 -509 0 -621 -17 -725 -111 -35 -32 -65 -84 -170 -299 l-128 -260 -25
55 c-170 381 -216 469 -272 518 -25 22 -67 48 -93 57 -119 40 -895 55 -1131
22 -69 -10 -141 -16 -160 -13 -74 12 -584 36 -796 38 -313 3 -309 6 -546 -272
-63 -74 -146 -172 -183 -217 -37 -46 -71 -83 -74 -83 -4 0 -20 19 -36 43 -87
125 -266 356 -308 398 -53 53 -123 93 -179 104 -42 8 -545 -11 -834 -31 -115
-8 -214 -15 -220 -15 -5 0 -75 4 -155 10 -300 22 -727 5 -854 -33 -138 -42
-228 -176 -212 -315 l7 -56 -82 124 c-99 149 -169 223 -243 257 -50 23 -80 27
-333 44 -299 21 -718 26 -843 10 -42 -6 -95 -20 -121 -34 -44 -23 -49 -23
-100 -10 -79 21 -546 30 -724 15 -266 -23 -327 -41 -398 -120 -62 -68 -72 -96
-72 -196 l0 -90 -87 130 c-96 145 -159 212 -234 249 -45 23 -77 28 -260 43
-239 20 -927 24 -979 7 -24 -9 -39 -7 -75 10 -41 19 -67 21 -285 23 -132 2
-445 8 -696 13 -390 9 -474 8 -571 -5 -117 -15 -207 -40 -264 -74 -32 -19 -34
-19 -69 -1 -71 36 -165 45 -475 44 -308 0 -452 -14 -521 -50 -50 -26 -109 -85
-137 -138 -26 -49 -27 -56 -25 -201 1 -82 7 -229 12 -325 6 -96 13 -255 17
-353 l7 -177 -34 14 c-114 47 -669 98 -837 77 -262 -33 -341 -173 -342 -598
-1 -640 254 -1066 731 -1226 298 -100 672 -110 944 -26 81 24 222 92 290 139
71 49 178 153 221 215 41 60 54 68 54 31 0 -46 40 -216 59 -255 28 -53 102
-116 168 -141 102 -38 221 -43 828 -36 603 7 817 16 854 35 16 9 26 9 35 2 58
-48 269 -66 598 -51 395 18 536 53 609 153 63 85 70 130 54 345 -7 92 -12 168
-11 169 1 1 78 -113 171 -254 257 -388 247 -381 542 -388 109 -2 286 -7 393
-10 248 -8 399 4 472 37 l53 24 34 -23 c19 -13 50 -27 70 -33 198 -53 891 -19
1038 51 63 30 130 110 149 177 17 57 17 95 -2 347 l-7 80 118 -180 c160 -244
248 -367 287 -400 72 -61 95 -65 380 -73 459 -12 685 -8 748 13 134 44 204
125 234 272 42 204 86 786 114 1531 l7 193 192 -243 c106 -134 228 -283 273
-332 44 -48 81 -98 81 -110 1 -11 1 -266 0 -566 l-2 -545 24 -51 c31 -64 81
-114 143 -144 69 -34 213 -42 679 -38 l390 3 55 26 c80 37 115 72 152 147 l33
67 -3 335 c-2 184 -7 423 -12 530 l-8 195 113 140 c62 77 155 187 205 245 85
97 429 470 434 470 1 0 0 -249 -2 -552 -5 -734 16 -1292 55 -1427 23 -83 97
-152 194 -183 70 -21 90 -23 364 -23 535 0 675 37 756 201 21 44 24 62 23 166
l-1 117 29 -40 c27 -37 69 -69 133 -99 40 -19 371 -26 529 -11 87 8 127 16
163 34 l48 25 1 -62 c2 -82 34 -154 91 -207 62 -57 118 -79 231 -90 122 -12
844 -10 894 2 20 5 58 25 83 44 l45 35 39 -25 c68 -46 133 -64 272 -76 149
-13 548 -7 664 11 130 20 223 83 271 185 29 61 31 142 8 355 -10 95 -18 283
-21 545 l-5 400 33 -45 c54 -75 161 -179 221 -216 l57 -35 -43 -54 c-205 -251
-220 -603 -39 -894 90 -144 217 -244 378 -298 74 -25 92 -27 250 -27 183 0
289 15 526 74 242 61 363 60 632 -9 355 -91 510 -112 647 -87 120 21 211 69
310 163 185 173 270 377 270 640 0 193 -42 327 -142 460 l-46 62 56 32 c74 42
169 133 230 223 60 87 78 120 112 214 l27 74 61 -229 c34 -125 85 -325 112
-443 92 -391 121 -503 180 -682 81 -247 113 -298 216 -351 62 -32 124 -35 614
-39 l495 -3 53 29 c69 39 134 109 174 190 18 36 35 66 38 66 3 0 18 -36 33
-79 46 -128 103 -188 213 -226 40 -13 67 -15 144 -9 52 4 266 8 475 8 l380 1
46 27 c93 54 138 130 189 318 58 213 404 1178 685 1909 134 351 149 404 143
516 -7 120 -60 205 -160 256 -89 45 -775 82 -930 50 -63 -14 -145 -66 -190
-122 -18 -22 -79 -160 -153 -345 l-123 -309 -40 130 c-22 72 -57 188 -77 259
-19 70 -42 144 -51 164 -23 55 -76 114 -136 150 -76 45 -177 55 -478 49 -256
-6 -328 -16 -402 -60 -91 -53 -128 -121 -237 -427 l-69 -195 -16 55 c-8 30
-35 129 -59 220 -48 180 -70 231 -123 290 -70 78 -158 100 -476 121 -189 13
-468 2 -548 -21 -99 -28 -197 -118 -221 -203 -21 -74 -13 -191 19 -302 16 -55
29 -101 28 -102 -1 -1 -31 13 -68 32 -112 56 -242 66 -377 29 -23 -7 -23 -6
-15 37 16 89 -2 264 -43 409 -76 269 -330 433 -604 391 -192 -30 -348 -164
-450 -387 -30 -66 -32 -68 -39 -41 -12 41 -155 233 -231 308 -126 127 -287
178 -466 148z m177 -265 c128 -38 289 -281 337 -508 38 -181 -30 -330 -183
-398 -74 -32 -203 -36 -276 -8 -107 40 -174 131 -220 298 -18 63 -22 106 -22
242 -1 152 1 169 22 215 38 83 95 132 187 161 55 17 92 17 155 -2z m1206 -39
c128 -53 183 -185 184 -438 0 -239 -62 -385 -195 -455 -44 -24 -61 -27 -145
-27 -83 0 -103 4 -156 28 -150 69 -213 202 -185 387 34 216 137 422 245 489
67 42 174 49 252 16z m-16637 -212 c586 -7 548 -2 571 -80 28 -97 21 -475 -11
-535 -17 -32 -48 -35 -189 -22 -147 14 -606 19 -613 7 -3 -5 -6 -62 -8 -127
l-4 -120 330 -3 c319 -4 331 -5 348 -25 14 -17 17 -41 17 -157 -1 -131 -20
-337 -34 -360 -5 -8 -105 -11 -340 -11 l-334 0 -3 -107 c-2 -60 -2 -183 0
-275 l3 -166 76 -8 c42 -4 208 -5 369 -2 237 4 295 3 304 -8 7 -9 12 -101 15
-263 4 -211 2 -251 -10 -264 -23 -23 -272 -31 -911 -32 -644 0 -627 -2 -644
73 -33 140 -65 433 -81 737 -27 512 5 1591 50 1675 31 58 201 92 425 85 83 -3
386 -8 674 -12z m9261 -19 c151 -9 282 -20 293 -26 11 -5 16 -16 13 -25 -3 -8
-6 -26 -6 -39 0 -19 -56 -82 -227 -257 -361 -368 -591 -621 -790 -869 -52 -66
-111 -135 -130 -153 l-35 -34 11 -283 c17 -445 19 -834 3 -850 -10 -10 -98
-14 -400 -16 -213 -1 -421 1 -462 5 l-75 8 -1 597 -1 596 -88 94 c-48 51 -230
271 -403 488 -174 217 -362 450 -419 517 -56 67 -103 130 -103 140 0 10 8 28
18 39 16 20 33 22 212 33 376 22 729 32 749 21 25 -13 147 -170 321 -410 74
-102 153 -211 176 -243 l43 -58 222 268 c316 381 396 471 422 476 33 7 349 -2
657 -19z m1302 2 c163 -9 211 -15 223 -27 19 -19 193 -395 341 -736 60 -139
111 -252 114 -253 8 0 90 166 282 570 92 195 179 371 193 392 28 43 30 43 218
58 316 25 844 2 905 -40 27 -18 44 -95 67 -300 47 -432 42 -951 -16 -1695 -11
-143 -24 -315 -28 -381 -5 -67 -11 -126 -14 -131 -3 -5 -177 -9 -436 -9 -508
1 -475 -7 -460 111 22 171 39 1318 20 1329 -11 7 -191 -444 -331 -829 -56
-154 -108 -286 -115 -294 -18 -18 -460 -30 -492 -12 -22 11 -267 495 -443 871
-45 96 -86 180 -92 185 -14 14 -4 -639 17 -1035 14 -267 14 -306 1 -315 -8 -6
-70 -18 -138 -26 -154 -18 -633 -19 -664 -2 -18 10 -22 28 -33 135 -33 345
-40 1550 -11 2123 15 284 15 287 63 297 133 28 495 34 829 14z m10973 -13 c99
-8 183 -17 188 -20 15 -9 6 -91 -17 -159 -13 -38 -78 -211 -144 -385 -272
-711 -640 -1746 -667 -1879 -4 -19 -16 -53 -27 -74 l-20 -39 -281 5 c-155 3
-345 2 -422 -2 -77 -4 -146 -4 -154 0 -11 6 -70 160 -238 623 -25 70 -48 125
-51 123 -2 -3 -71 -155 -153 -338 -84 -188 -159 -343 -174 -357 l-25 -25 -457
3 c-252 2 -465 7 -474 12 -18 9 -93 215 -139 384 -16 61 -61 243 -99 406 -80
342 -110 453 -302 1131 -98 341 -140 504 -135 522 3 14 16 30 27 37 42 22 292
33 479 21 208 -14 289 -26 308 -46 8 -8 90 -297 182 -643 155 -578 169 -626
180 -598 7 17 74 210 150 430 274 794 286 824 335 837 53 14 316 24 454 17
111 -6 136 -10 152 -25 10 -11 30 -64 45 -119 14 -55 89 -305 166 -555 77
-250 149 -485 161 -522 11 -38 23 -68 26 -68 3 0 14 26 24 58 33 103 177 480
312 817 73 182 138 346 144 366 19 59 42 73 135 80 104 8 284 2 511 -18z
m-7693 2 c222 -18 235 -21 241 -46 3 -11 -1 -59 -9 -107 -49 -308 -67 -683
-68 -1382 -1 -495 2 -609 16 -740 24 -207 23 -246 -2 -260 -57 -30 -665 -38
-763 -10 -45 13 -51 25 -71 147 -65 392 -88 951 -67 1648 13 431 31 643 56
682 49 75 288 99 667 68z m-15231 -14 c32 -10 38 -17 48 -58 39 -153 39 -676
1 -1218 -37 -517 -135 -808 -340 -1016 -138 -139 -298 -207 -542 -229 -143
-13 -239 -7 -398 25 -437 88 -638 323 -701 821 -13 106 -7 399 10 469 13 51
29 62 104 70 130 14 630 -35 713 -70 39 -16 40 -19 18 -134 -19 -99 -14 -258
9 -313 17 -41 66 -84 106 -93 40 -9 93 16 125 58 60 78 88 219 108 530 11 188
7 374 -22 936 -7 128 -7 188 1 197 9 11 90 28 184 38 81 8 541 -2 576 -13z
m3061 -4 c153 -12 158 -13 189 -42 36 -34 179 -248 354 -530 101 -163 173
-285 320 -547 l30 -53 7 165 c13 290 -10 764 -44 898 -16 65 -8 70 172 88 197
20 684 14 707 -9 32 -32 46 -268 47 -777 0 -567 -19 -932 -75 -1432 -24 -215
-33 -248 -74 -262 -33 -10 -400 -12 -695 -2 -102 3 -188 6 -193 6 -19 0 -506
755 -717 1112 -102 172 -105 176 -112 145 -14 -57 -9 -869 5 -1047 8 -91 10
-172 6 -180 -21 -41 -559 -84 -761 -60 -55 6 -107 14 -116 17 -14 6 -14 55 -8
472 4 256 12 592 17 746 6 154 12 506 14 783 1 280 6 507 11 512 5 5 23 11 39
13 54 9 716 -3 877 -16z m2835 5 c232 -17 243 -18 268 -42 66 -62 503 -760
655 -1048 35 -65 46 -79 53 -66 5 9 7 176 4 398 -5 375 -19 566 -47 652 -19
56 -6 62 170 80 119 12 215 15 410 10 266 -5 299 -8 311 -27 25 -42 53 -626
44 -944 -18 -640 -78 -1402 -118 -1483 -6 -14 -25 -30 -42 -36 -58 -19 -865
-6 -890 14 -38 32 -419 619 -647 1000 -88 146 -163 269 -168 273 -24 26 -24
-795 1 -1101 8 -108 8 -147 0 -155 -40 -40 -548 -79 -756 -57 -73 7 -114 16
-121 25 -12 17 -9 420 7 980 6 193 13 612 16 932 4 412 9 585 17 592 19 16 61
18 331 19 153 0 359 -6 502 -16z m10265 -584 c109 -56 231 -174 277 -269 53
-108 53 -262 0 -375 -80 -168 -305 -208 -457 -79 -76 64 -164 218 -196 342
-60 230 47 422 236 423 47 0 70 -7 140 -42z m2598 12 c82 -42 134 -137 133
-245 -1 -146 -65 -301 -171 -416 -83 -90 -127 -113 -212 -114 -86 0 -187 47
-231 108 -123 169 -42 464 168 614 114 81 222 100 313 53z m-1215 -245 c163
-35 250 -109 365 -309 131 -231 249 -364 425 -481 156 -103 248 -214 281 -339
19 -69 18 -237 -1 -311 -29 -108 -73 -184 -160 -271 -152 -153 -235 -156 -755
-24 -269 69 -457 71 -700 10 -297 -74 -518 -97 -640 -66 -127 33 -226 114
-288 240 -62 124 -78 252 -46 371 36 140 146 260 349 380 154 90 204 146 306
335 153 286 258 396 431 455 64 22 90 24 218 25 90 0 171 -6 215 -15z m-15698
-862 c-3 -3 -111 -6 -239 -7 -213 -1 -233 0 -236 16 -3 16 15 18 235 20 191 2
239 0 241 -10 2 -8 1 -16 -1 -19z"/>
<path d="M25449 9961 c-106 -34 -238 -141 -366 -294 -75 -90 -198 -266 -191
-273 2 -2 69 10 149 26 388 79 632 78 976 -5 58 -14 108 -23 110 -21 7 6 -77
134 -149 229 -117 154 -236 265 -338 317 -48 25 -147 35 -191 21z"/>
</g>
</svg>
